<?xml version="1.0" standalone="no"?>
<!DOCTYPE svg PUBLIC "-//W3C//DTD SVG 20010904//EN"
 "http://www.w3.org/TR/2001/REC-SVG-20010904/DTD/svg10.dtd">
<svg version="1.0" xmlns="http://www.w3.org/2000/svg"
 width="2051.000000pt" height="1636.000000pt" viewBox="0 0 2051.000000 1636.000000"
 preserveAspectRatio="xMidYMid meet">

<g transform="translate(0.000000,1636.000000) scale(0.100000,-0.100000)"
fill="#186B57" stroke="none">
<path d="M14225 16340 c-11 -5 -108 -45 -215 -89 -1849 -756 -3465 -1965
-4703 -3518 -316 -396 -636 -857 -876 -1260 l-73 -123 -790 783 c-434 430
-793 783 -797 785 -4 1 -31 -57 -60 -130 -461 -1148 -1131 -2261 -1930 -3208
-288 -341 -789 -857 -1101 -1135 -1043 -927 -2196 -1642 -3490 -2164 -91 -37
-167 -70 -170 -74 -5 -6 6215 -6197 6226 -6197 3 0 89 34 191 75 1152 468
2206 1098 3133 1873 500 417 1047 965 1477 1477 365 435 835 1102 1072 1518
18 31 36 57 39 57 4 0 203 -196 442 -436 239 -239 595 -592 791 -785 l356
-349 58 143 c436 1073 1032 2093 1739 2972 735 915 1628 1732 2601 2382 651
434 1448 854 2182 1149 94 38 171 70 169 71 -1 1 -1297 420 -2879 931 -1582
511 -2880 932 -2884 936 -4 4 -443 4101 -463 4324 0 5 -26 0 -45 -8z m-965
-10748 c138 -612 250 -1117 248 -1121 -2 -5 -243 229 -535 520 l-533 529 119
232 c130 254 265 544 356 763 85 206 87 211 91 200 2 -5 116 -511 254 -1123z"/>
</g>
</svg>
