<?xml version="1.0" standalone="no"?>
<!DOCTYPE svg PUBLIC "-//W3C//DTD SVG 20010904//EN"
 "http://www.w3.org/TR/2001/REC-SVG-20010904/DTD/svg10.dtd">
<svg version="1.0" xmlns="http://www.w3.org/2000/svg"
 width="1200.000000pt" height="1200.000000pt" viewBox="0 0 1200.000000 1200.000000"
 preserveAspectRatio="xMidYMid meet">

<g transform="translate(0.000000,1200.000000) scale(0.100000,-0.100000)"
fill="#000000" stroke="none">
<path d="M0 6000 l0 -6000 6000 0 6000 0 0 6000 0 6000 -6000 0 -6000 0 0
-6000z m6753 2493 c4 -27 23 -205 43 -398 20 -192 39 -353 43 -357 3 -4 245
-84 536 -178 292 -95 531 -173 533 -174 1 -2 -43 -22 -97 -45 -379 -162 -723
-453 -953 -806 -58 -89 -158 -278 -192 -364 l-17 -45 -148 148 -149 148 -28
-48 c-91 -155 -313 -407 -474 -537 -41 -33 -122 -92 -180 -130 -105 -68 -339
-190 -394 -203 -27 -6 -56 21 -602 567 -316 316 -574 576 -574 580 0 3 26 16
58 29 508 205 944 639 1166 1159 l27 65 147 -147 147 -147 32 52 c52 88 176
248 263 341 139 148 335 300 525 408 56 31 263 128 276 129 4 0 9 -21 12 -47z
m-1177 -3620 c-3 -10 -51 -249 -107 -530 l-102 -513 -113 0 c-63 0 -114 1
-114 3 0 1 47 239 105 527 58 288 105 526 105 527 0 2 52 3 116 3 105 0 115
-2 110 -17z m2794 4 c0 -7 -25 -136 -55 -287 -30 -151 -55 -275 -55 -277 0 -2
80 62 177 142 l177 145 150 0 c85 0 146 -4 140 -9 -5 -4 -92 -77 -194 -161
-102 -84 -186 -156 -188 -161 -2 -5 50 -98 117 -207 66 -108 123 -205 127
-215 6 -16 -5 -17 -122 -17 l-129 0 -88 145 c-49 80 -92 145 -97 145 -5 0 -35
-22 -67 -49 l-58 -49 -20 -93 -20 -94 -113 -3 c-86 -2 -112 0 -112 10 0 14
198 1015 205 1036 6 18 225 17 225 -1z m-6481 -134 c-10 -48 -19 -91 -19 -95
0 -4 -72 -8 -160 -8 -88 0 -160 -1 -160 -3 0 -5 -149 -750 -155 -774 -5 -22
-9 -23 -120 -23 -84 0 -115 3 -115 12 0 7 34 184 75 394 41 210 75 384 75 388
0 3 -70 6 -156 6 l-156 0 6 30 c3 17 11 59 18 95 l11 65 438 0 437 0 -19 -87z
m551 -137 c0 -2 -9 -48 -20 -101 -11 -53 -20 -98 -20 -99 0 0 -29 -2 -65 -2
-87 -2 -150 -33 -188 -96 -22 -35 -37 -89 -68 -239 -21 -107 -41 -204 -44
-216 -5 -22 -10 -23 -115 -23 -108 0 -110 1 -110 23 1 12 34 184 73 382 l73
360 108 3 108 3 -6 -37 c-8 -39 -7 -39 46 -1 35 26 110 45 176 46 28 1 52 -1
52 -3z m570 -20 c19 -10 49 -32 66 -48 l32 -30 6 46 7 46 116 0 c114 0 115 0
110 -22 -3 -13 -33 -165 -67 -338 -34 -173 -66 -337 -72 -363 l-10 -48 -106 3
-107 3 3 29 c2 15 0 26 -5 24 -125 -61 -127 -62 -213 -62 -77 -1 -92 2 -152
32 -123 60 -178 157 -178 311 0 209 109 367 293 427 61 20 231 14 277 -10z
m1908 -16 c129 -69 188 -193 168 -354 l-7 -56 -292 -2 -292 -3 3 -25 c4 -31
29 -67 66 -94 23 -18 42 -21 124 -21 87 0 102 3 146 28 27 15 52 27 56 27 9 0
90 -127 90 -140 0 -16 -74 -58 -137 -79 -227 -75 -468 2 -544 175 -59 133 -17
342 91 453 96 99 187 132 350 128 109 -2 118 -4 178 -37z m1314 28 c22 -6 61
-31 87 -54 l48 -43 52 40 c73 54 141 72 255 67 100 -5 134 -17 186 -70 81 -81
85 -153 23 -463 l-49 -240 -112 -3 c-89 -2 -112 0 -112 11 0 7 18 103 40 212
44 216 48 271 25 315 -29 57 -143 61 -216 9 -44 -31 -67 -94 -109 -305 -22
-109 -42 -209 -45 -221 -5 -22 -10 -23 -115 -23 -101 0 -110 1 -110 19 0 10
18 113 41 228 45 231 46 274 5 310 -51 44 -145 38 -204 -12 -45 -38 -67 -102
-113 -332 l-42 -213 -115 0 c-113 0 -114 0 -109 23 3 12 38 185 78 385 l72
362 108 0 109 0 -7 -32 -6 -32 38 24 c21 13 54 29 74 36 46 17 171 18 223 2z
m1338 -9 c25 -11 59 -34 77 -51 l31 -30 9 43 9 44 112 3 c88 2 112 0 112 -11
0 -11 -132 -679 -145 -734 -5 -22 -10 -23 -111 -23 l-106 0 4 33 4 32 -69 -35
c-63 -31 -77 -34 -156 -34 -71 0 -95 4 -141 26 -117 54 -181 151 -188 287 -8
143 28 249 116 343 86 92 168 126 307 127 70 0 100 -4 135 -20z m1902 -12 c71
-35 141 -111 163 -176 11 -34 15 -76 13 -142 l-3 -94 -294 -3 -293 -2 6 -32
c3 -18 13 -43 22 -56 50 -76 243 -84 343 -13 l28 20 46 -73 c26 -41 47 -76 47
-79 0 -12 -92 -60 -148 -77 -237 -74 -475 8 -542 186 -18 50 -21 74 -18 159 3
87 8 109 35 168 37 77 116 163 184 198 81 42 119 49 239 46 103 -2 121 -5 172
-30z m828 29 c0 -2 -9 -48 -20 -101 -11 -53 -20 -98 -20 -99 0 0 -29 -2 -65
-2 -87 -2 -150 -34 -187 -95 -22 -35 -37 -91 -71 -259 l-43 -215 -112 -3
c-102 -2 -112 -1 -112 15 0 10 33 182 73 383 l72 365 109 3 108 3 -6 -37 c-8
-39 -7 -39 47 -1 42 29 104 46 170 46 31 1 57 -1 57 -3z m632 -25 c32 -12 60
-26 63 -31 4 -7 -55 -141 -70 -158 -1 -1 -38 9 -81 24 -136 45 -282 24 -292
-44 -5 -31 28 -46 157 -76 130 -30 189 -60 221 -111 19 -30 22 -47 18 -109 -3
-60 -8 -80 -31 -114 -74 -106 -250 -157 -450 -132 -87 11 -176 37 -212 63 -17
13 -16 18 25 95 l43 81 38 -20 c92 -46 262 -65 333 -35 37 15 50 46 32 72 -8
10 -64 29 -146 50 -154 39 -203 66 -231 127 -49 109 0 232 119 295 85 45 120
51 272 48 111 -2 145 -7 192 -25z m-7202 -236 c31 -147 57 -250 62 -243 4 7
74 121 156 253 l148 240 117 3 116 3 -214 -345 c-117 -189 -225 -362 -239
-385 l-26 -41 -115 0 c-63 0 -115 1 -115 3 0 3 -155 703 -165 745 -5 22 -5 22
108 22 l114 0 53 -255z"/>
<path d="M6459 6621 l-46 -99 95 -93 c52 -52 93 -87 90 -79 -3 8 -22 92 -43
185 -21 94 -40 173 -44 177 -3 4 -27 -37 -52 -91z"/>
<path d="M2829 4416 c-66 -18 -104 -49 -135 -112 -35 -73 -39 -162 -9 -214 30
-51 96 -83 161 -77 55 6 118 33 146 64 59 64 79 196 42 267 -34 65 -119 95
-205 72z"/>
<path d="M4630 4429 c-43 -17 -120 -103 -120 -134 0 -3 84 -5 186 -5 l187 0
-7 33 c-14 74 -76 117 -166 116 -30 0 -66 -5 -80 -10z"/>
<path d="M7397 4416 c-95 -26 -157 -118 -157 -234 0 -97 46 -153 138 -168 167
-27 307 173 230 326 -36 71 -120 101 -211 76z"/>
<path d="M9183 4421 c-41 -19 -103 -90 -103 -118 0 -10 36 -13 185 -13 l185 0
-6 28 c-13 51 -34 82 -74 102 -50 26 -131 26 -187 1z"/>
</g>
</svg>
